<?xml version="1.0" encoding="UTF-8" standalone="no"?>
<!-- Created with Inkscape (http://www.inkscape.org/) -->

<svg
   width="100mm"
   height="100mm"
   viewBox="0 0 100 100"
   version="1.1"
   id="svg5"
   xml:space="preserve"
   inkscape:version="1.2.2 (b0a8486541, 2022-12-01)"
   sodipodi:docname="Reset-U_logo.svg"
   xmlns:inkscape="http://www.inkscape.org/namespaces/inkscape"
   xmlns:sodipodi="http://sodipodi.sourceforge.net/DTD/sodipodi-0.dtd"
   xmlns="http://www.w3.org/2000/svg"
   xmlns:svg="http://www.w3.org/2000/svg"><sodipodi:namedview
     id="namedview7"
     pagecolor="#ffffff"
     bordercolor="#000000"
     borderopacity="0.25"
     inkscape:showpageshadow="2"
     inkscape:pageopacity="0.0"
     inkscape:pagecheckerboard="0"
     inkscape:deskcolor="#d1d1d1"
     inkscape:document-units="mm"
     showgrid="false"
     inkscape:zoom="1.6026999"
     inkscape:cx="341.61105"
     inkscape:cy="276.40857"
     inkscape:window-width="2133"
     inkscape:window-height="1261"
     inkscape:window-x="0"
     inkscape:window-y="0"
     inkscape:window-maximized="1"
     inkscape:current-layer="layer1" /><defs
     id="defs2" /><g
     inkscape:label="Layer 1"
     inkscape:groupmode="layer"
     id="layer1"><g
       id="g4087"
       transform="matrix(0.59236985,0,0,0.59236985,112.51253,-27.712717)"><path
         style="fill:#73b9b9;fill-opacity:1;stroke:#e9f5f4;stroke-width:0.264583"
         d="m -124.75486,47.880036 c 0.85971,-0.36733 1.41507,-0.0619 1.7945,0.632453 l 9.34326,49.211013 -0.52384,1.007123 -1.172,0.146383 -15.82269,-6.950636 c -0.35491,-0.177848 -0.70981,-0.347446 -1.06472,0.524019 -10.86375,32.386239 -10.07808,47.671159 -8.98099,63.331659 3.46595,19.76122 13.58084,27.88679 26.73814,30.6881 14.653971,2.39638 24.203621,-1.9679 31.016961,-10.53495 4.16181,-5.23306 6.75762,-10.55914 7.97268,-18.44749 0.49511,-7.46196 0.60042,-31.16871 0.73816,-47.29019 0.002,-0.78263 0.27897,-1.28951 0.67293,-1.67977 l 26.85774,-27.954074 c 0.55526,-0.492744 1.20082,-0.849531 1.65977,-0.909202 0.75784,-0.09853 1.30693,0.05706 1.59995,0.380846 0.29449,0.325407 0.44153,0.999402 0.51381,1.396174 l 0.37099,35.591686 v 30.68809 c -0.68793,10.33063 -2.27843,20.66129 -6.98838,30.99193 -2.68827,5.63207 -5.72937,9.85286 -8.81143,13.90977 -9.91604,10.50533 -22.85625,20.49459 -45.495781,22.05239 -17.03292,0.28138 -35.64638,-5.51627 -49.75882,-20.75104 -6.06201,-6.66286 -9.70348,-13.9509 -12.07964,-21.5573 -2.21124,-7.56021 -2.9569,-14.47742 -2.70543,-21.22657 -0.0131,-3.21973 0.39182,-10.54503 1.26408,-16.00965 1.27409,-6.75618 2.52109,-13.69046 4.60309,-20.35188 1.41487,-5.14625 3.08336,-10.07427 4.935,-15.131896 2.05247,-5.645887 4.07972,-10.829786 6.26647,-15.894083 0.16602,-0.485205 -0.0164,-0.753774 -0.31613,-0.949498 l -14.5071,-6.728378 c -0.34285,-0.228831 -0.51846,-0.379373 -0.72496,-0.725267 -0.1151,-0.330453 -0.18932,-0.677268 0.0698,-1.157424 0.1919,-0.340844 0.47811,-0.516948 0.69204,-0.686927 z"
         id="path310"
         sodipodi:nodetypes="cccccccccsccccssccccccccccccccccccc" /><path
         style="fill:#f7b613;fill-opacity:1;stroke:#f8a51b;stroke-width:0.264583"
         d="m -129.4834,163.96683 c 1.4528,-3.5004 3.51502,-5.78199 5.773,-7.67201 3.02197,-1.92056 6.19584,-2.47399 9.41913,-2.58267 2.73237,0.0545 5.26878,0.45193 7.59604,1.21538 l 6.45666,1.97496 c 3.761421,1.08875 7.043981,1.63875 9.191221,0.91153 -0.51346,-3.10123 -2.09691,-6.01363 -4.32975,-8.81143 -3.13017,-2.98087 -6.897541,-5.06968 -11.546001,-5.92492 -3.1111,-0.0497 -6.18133,0.22759 -9.19123,0.98748 -2.45075,0.70284 -5.19229,2.16766 -7.59607,4.40572 -1.38773,1.15022 -3.74082,4.11691 -5.24128,8.12777 -0.59751,2.50861 -0.74422,4.96085 -0.53172,7.36819 z"
         id="path408"
         sodipodi:nodetypes="cccccccccccc" /><path
         style="fill:#f49425;fill-opacity:1;stroke:#f7b613;stroke-width:0.264583"
         d="m -108.10482,160.11968 c 4.52464,1.28502 8.291041,1.92727 12.309961,1.7962 3.41866,0.0699 5.26649,-0.64572 7.10231,-1.36728 2.14813,-0.86498 3.76837,-2.25784 5.31724,-3.72206 -0.14049,4.29751 -1.5088,8.33653 -3.57016,12.22964 -1.74187,2.97928 -4.09091,5.26465 -6.5326,7.44415 -2.96086,1.75823 -6.1552,3.12731 -9.722971,3.874 -3.08905,0.45367 -6.17813,0.30362 -9.26718,-0.15194 -3.93298,-1.2973 -7.8297,-2.71541 -11.16622,-6.00087 4.29444,2.05259 8.74592,3.08436 13.44502,2.5067 3.38519,-0.5701 5.95007,-1.90186 7.82397,-4.48168 1.23039,-2.28555 0.9319,-3.87975 0.15194,-5.96292 -1.53735,-2.56715 -3.47311,-4.28189 -5.89131,-6.16394 z"
         id="path410"
         sodipodi:nodetypes="ccccccccccccc" /><path
         style="fill:#f7b613;fill-opacity:1;stroke:#f8a51b;stroke-width:0.264583"
         d="m -96.028039,114.67511 c 0.72899,0.0413 1.55827,0.0548 2.17358,0.2615 0.33237,0.1393 0.64606,0.17848 0.44331,0.85876 l -5.00397,25.01572 c -0.058,0.45876 -0.42676,0.68691 -0.83281,0.53647 -0.771261,-0.21852 -1.452661,-0.53909 -2.097841,-0.9341 -0.21413,-0.18334 -0.35748,-0.20592 -0.33104,-0.64584 1.59535,-8.28913 2.830881,-15.52089 5.128061,-24.67225 0.0594,-0.23353 0.24066,-0.40528 0.52071,-0.42026 z"
         id="path412"
         sodipodi:nodetypes="ccccccccc" /><path
         style="fill:#f7b613;fill-opacity:1;stroke:#f8a51b;stroke-width:0.264583"
         d="m -84.525869,132.98723 c 0.59402,-0.53352 0.75599,-0.25621 1.00827,0.13035 0.30967,0.79478 0.5892,1.61539 0.71495,2.5678 0.0437,0.35481 0.0659,0.7175 -0.17416,1.04737 l -8.57516,9.70189 c -0.22652,0.14381 -0.45302,0.19744 -0.67951,0.0501 l -1.55916,-1.69372 c -0.15802,-0.18063 -0.32745,-0.51857 -0.0374,-0.9628 z"
         id="path414"
         sodipodi:nodetypes="ccccccccc" /><path
         style="fill:#f78e1b;stroke:#f8a51b;stroke-width:0.264583"
         d="m -83.835239,149.03962 c 0.69671,-0.17083 0.71824,0.31135 0.73867,0.72984 l -0.0676,2.37325 c -0.0404,0.31944 -0.22629,0.45718 -0.62605,0.68577 l -3.42324,1.1375 c -0.31392,0.0973 -0.59661,0.0384 -0.84134,-0.21024 l -0.90041,-2.05906 c -0.0828,-0.51057 -0.18888,-0.53886 0.38765,-0.97362 z"
         id="path416"
         sodipodi:nodetypes="ccccccccc" /><path
         style="fill:#f8a51b;fill-opacity:1;stroke:#f8a51b;stroke-width:0.264583"
         d="m -98.522589,146.67506 c -3.349591,3.42874 -9.824181,4.88379 -15.518631,6.83157 3.47814,0.22924 7.17529,1.1155 11.04859,2.53021 4.188421,1.1229 8.614111,3.03672 12.060681,1.68681 -0.41258,-2.00973 -1.10394,-3.6013 -1.77115,-5.2291 -2.2462,-3.77808 -4.09706,-5.18406 -5.81949,-5.81949 z"
         id="path417"
         sodipodi:nodetypes="cccccc" /><path
         style="fill:#f78e1b;fill-opacity:1;stroke:#f78e1b;stroke-width:0.264583"
         d="m -92.970439,152.16592 c -1.788,2.34424 -6.20509,2.97384 -9.689271,3.98537 4.015511,1.27425 8.048321,2.70418 11.808431,1.67986 -0.65786,-1.76175 -0.97165,-3.65866 -2.11916,-5.66523 z"
         id="path419"
         sodipodi:nodetypes="cccc" /><path
         style="fill:#f8a51b;fill-opacity:1;stroke:#f8a51b;stroke-width:0.264583"
         d="m -83.707829,137.60452 c -2.08488,0.91725 -3.95447,1.90178 -6.87359,2.55833 l -3.1748,3.5755 c -0.48841,0.39043 -0.20067,0.78086 -0.0616,1.17129 l 1.41787,1.51034 c 0.29824,0.0999 0.52104,0.41102 1.07881,-0.21577 z"
         id="path2614"
         sodipodi:nodetypes="ccccccc" /><path
         style="fill:#f8a51b;fill-opacity:1;stroke:#f8a51b;stroke-width:0.264583"
         d="m -94.444729,120.99662 -2.86965,11.3942 -1.43482,5.37356 c -0.26347,1.03918 -0.32031,2.49161 -1.06909,2.56018 -0.577131,-0.07 -0.994001,-0.30015 -0.900281,-1.04095 0.024,-3.51807 0.986751,-8.24315 1.491131,-12.37889 l -2.391381,12.37889 c -0.13203,0.79808 0.1094,1.11067 0.45014,1.29415 l 1.941231,0.78775 c 0.43164,0.0129 0.66933,-0.29741 0.81589,-0.75961 z"
         id="path3721"
         sodipodi:nodetypes="ccccccccccc" /><path
         style="fill:#f57c1d;fill-opacity:1;stroke:none;stroke-width:0.264583"
         d="m -91.420189,174.35375 c -5.28045,1.09079 -10.623131,2.28913 -15.350461,1.58227 -5.76941,1.91862 -10.65887,1.01489 -16.0122,-1.15796 3.30551,2.88861 7.79681,4.5887 10.43906,5.25619 3.83153,0.56942 7.58842,0.77303 11.55856,-0.36255 4.667441,-1.33883 7.785491,-3.19192 9.365041,-5.31795 z"
         id="path4061"
         sodipodi:nodetypes="cccccc" /><path
         style="fill:#f78e1b;fill-opacity:1;stroke:none;stroke-width:0.264583"
         d="m -86.731329,168.32577 -14.647881,0.84043 c -0.15987,2.81979 -1.4744,5.25612 -5.33999,6.74745 4.84137,0.82438 9.738961,-0.46086 15.257051,-1.53128 1.98347,-2.06093 3.58947,-4.05685 4.73082,-6.0566 z"
         id="path4186"
         sodipodi:nodetypes="ccccc" /><path
         style="fill:#66ada2;fill-opacity:1;stroke:none;stroke-width:0.264583"
         d="m -151.50386,84.344008 c 0.30358,-0.824345 0.83772,-1.145633 1.69068,-0.771321 l 16.77034,7.554688 c 0.59969,0.352098 0.52558,0.896711 0.44143,1.444192 l -2.21014,6.690959 c -1.63469,5.083134 -2.98328,10.353674 -3.97539,15.530514 -0.93886,7.11733 -2.75265,14.09498 -2.96829,21.6261 l 0.31804,16.80264 c 0.59051,5.60894 1.82336,11.18728 4.50543,16.69662 1.47127,2.37644 2.724,4.80752 4.94877,6.99558 4.34256,4.81513 9.86291,7.89162 16.30364,9.60945 7.7836,1.82288 15.49298,1.45602 23.077001,-2.609 l 4.29718,-2.73431 c 2.4216,-1.79572 4.34991,-3.87333 6.07474,-6.06721 2.08534,-2.76636 3.53428,-5.71454 4.93214,-8.67732 l 1.27213,-4.07764 c 1.44171,-5.17405 1.0091,-10.61587 1.16344,-15.97384 l 0.21203,-20.99004 -0.053,-5.77756 -0.21202,-8.48083 c 0.075,-1.31802 0.4343,-1.71992 1.75827,-3.56421 l 25.6984,-27.072771 c 0.93763,-0.596721 1.89521,-1.126933 3.12731,-0.742074 0.88501,0.325541 0.94987,1.247232 1.1131,2.120207 l 0.21202,34.506358 10e-6,8.53383 0.15901,19.92994 c -0.34578,5.72424 -0.49954,11.18993 -1.83589,17.34821 l -1.1324,4.2779 -2.38523,8.32181 -1.6394,3.96629 c -1.05414,2.32881 -2.40776,4.73369 -3.64715,6.50677 -1.81872,2.78665 -3.49907,4.88147 -5.22666,7.21247 l -5.70637,5.74275 c -3.09671,3.19324 -7.05976,5.52013 -10.81305,8.05678 -9.36437,5.48897 -19.25208,7.38932 -29.311851,8.10979 -12.3539,0.42457 -20.70047,-2.35213 -28.46377,-5.56554 -6.26405,-2.90081 -11.68319,-6.95376 -16.85564,-11.3431 -2.12422,-2.10354 -3.99957,-4.14487 -5.72456,-6.1486 -4.73895,-5.69805 -7.66476,-11.94792 -10.12399,-18.33979 -0.61839,-2.41795 -1.23678,-4.96805 -1.85518,-7.68575 -0.92384,-5.46962 -1.27613,-11.02717 -0.90109,-16.69662 0.16158,-4.57234 0.60644,-9.21549 1.16612,-13.88735 0.88059,-6.76777 2.42044,-13.35573 4.39943,-19.82393 l 5.08849,-14.73544 z"
         id="path217"
         sodipodi:nodetypes="cccccccccccccccccccccccccccccccccccccccccccccc" /><path
         style="fill:#64a899;fill-opacity:1;stroke:none;stroke-width:0.264583"
         d="m -157.97481,100.37563 c 7.38173,1.4646 14.73895,1.26355 22.05015,-2.067197 0.82551,-0.02589 1.34048,0.340491 1.21912,1.510646 l -4.00189,15.053471 c -1.38922,7.31358 -2.64532,14.69373 -3.0478,22.50069 l 0.39754,15.84854 c 0.80044,5.82804 1.83178,11.60748 4.50544,17.04116 l 5.80407,7.73875 c 3.80345,3.22507 7.92577,6.10849 13.11877,7.84476 8.49744,2.19269 16.9651,2.45052 25.362971,-1.82868 l 4.63795,-2.80927 5.85707,-6.25461 4.82347,-8.45432 1.21912,-3.86938 1.40464,-16.19307 -0.15902,-20.72502 0.29153,-5.77756 c 10.7203,1.75115 21.38298,2.95177 31.22004,-3.73687 l 0.15901,8.69285 0.21203,19.18787 -1.74918,17.65071 -1.0336,4.0814 -2.51774,9.32891 -1.77567,3.36583 -3.41884,6.49313 -4.95598,6.81116 -6.12209,6.36062 -10.89257,8.03028 c -8.39678,5.62956 -18.37055,7.42929 -28.728791,8.29531 -7.69695,0.26662 -15.48423,-1.09287 -23.32227,-3.36583 -5.80675,-1.79367 -10.66479,-4.80712 -15.50401,-7.84476 l -7.73875,-6.44013 -4.61145,-5.24751 c -5.38939,-5.86226 -7.90484,-12.29932 -10.54803,-18.71082 l -1.72267,-7.42072 -0.95409,-16.77614 1.32513,-13.67533 4.55844,-20.19496 c 1.4603,-4.90032 2.90351,-9.81774 4.63795,-14.44391 z"
         id="path369"
         sodipodi:nodetypes="ccccccccccccccccccccccccccccccccccccccc" /><path
         style="fill:#5ba593;fill-opacity:1;stroke:none;stroke-width:0.264583"
         d="m -159.81603,115.21447 c 7.02648,8.60683 13.37196,2.57185 19.86456,-0.29985 0.12639,7.2217 -1.23296,13.94814 -1.87402,20.91402 l 0.29985,17.46582 3.52315,14.99212 c 2.46319,3.75013 5.37685,7.41017 8.54551,11.01921 4.38152,2.43426 8.3413,5.36056 13.49291,6.89638 8.21829,1.82755 16.184411,1.38557 23.837471,-1.87402 l 4.1978,-3.07338 5.54708,-6.07181 5.3222,-8.69543 1.04945,-4.1978 0.82457,-15.66677 0.3748,-20.61417 0.14993,-6.0718 c 11.45509,3.10287 22.35134,3.62115 31.55841,-3.67307 l -0.14992,9.29511 0.52473,20.83905 -2.0989,15.81669 -0.82457,3.52315 -4.34771,11.84378 -3.74803,7.57102 -4.94741,7.19622 -6.37165,5.99685 -10.71937,8.09574 -20.31432,7.42111 -19.264881,-0.14993 -17.01606,-4.57259 -12.44346,-7.12126 -10.64441,-10.41953 c -5.55624,-6.37165 -7.76758,-12.74331 -10.6444,-19.11496 l -1.79906,-8.39558 -0.22488,-14.69228 0.89953,-14.61732 3.44818,-17.54079 c 1.12986,-1.74411 2.28855,-3.32964 3.97292,-2.02393 z"
         id="path425"
         sodipodi:nodetypes="cccccccccccccccccccccccccccccccccccc" /><path
         style="fill:#55a189;fill-opacity:1;stroke:none;stroke-width:0.264583"
         d="m -74.885659,126.90832 c 0.73665,-1.70033 1.6456,-2.94122 3.22331,-2.39874 9.12021,4.45626 18.24041,5.87477 27.36062,0.74961 1.00811,-0.54302 1.03511,0.61455 1.34929,1.27433 l 0.29985,19.71464 -2.92347,19.63968 -4.34771,12.59338 -8.62047,13.7178 -17.16598,14.54236 -20.38929,6.97133 -19.040001,0.14993 -17.07479,-4.45539 -11.97916,-7.47373 -11.55513,-10.60103 c -4.67445,-5.32366 -7.19444,-12.18623 -9.96497,-18.86984 l -1.96119,-6.67865 -0.63606,-22.31517 1.27212,-8.05679 c 8.5904,3.86968 16.60627,1.99407 24.6474,0.37104 l 0.84809,17.4387 3.1273,14.47041 7.2087,9.80595 c 4.2303,3.90094 10.02853,7.01791 17.65072,9.2229 7.1977,1.68812 14.286711,1.20254 21.202061,-2.75627 l 4.50544,-2.86228 6.2016,-6.57264 4.55845,-8.37481 1.32513,-3.86938 1.37813,-15.79554 0.26503,-3.02129 z"
         id="path427"
         sodipodi:nodetypes="ccccccccccccccccccccccccccccccc" /><path
         style="fill:#529d83;fill-opacity:1;stroke:none;stroke-width:0.264583"
         d="m -141.52564,153.36942 c -14.78783,4.41143 -21.86303,0.42016 -26.83591,-4.04787 l 1.12442,16.41637 1.87401,6.89638 c 1.84493,5.99834 3.93931,12.0145 9.66992,18.29039 l 10.11968,10.79432 13.35209,7.71185 16.48224,4.50673 19.864561,-0.22488 20.01449,-7.04629 10.79432,-8.54551 7.19622,-6.2967 4.49764,-6.97133 3.29827,-6.37166 4.42267,-12.44346 0.93701,-4.68504 1.68661,-16.82865 c -10.56945,4.54435 -21.13889,5.42336 -31.70834,-0.74961 l -0.97448,17.99055 -1.27433,4.72252 -5.47213,8.24566 -5.3222,6.22174 -4.9474,3.44818 c -6.91777,3.40942 -14.013861,3.78735 -21.213861,2.39874 -7.02066,-1.59981 -12.0709,-5.17004 -16.56629,-9.29511 -2.90207,-3.33966 -5.53559,-6.63316 -7.72095,-10.26961 -1.90188,-5.22441 -2.46861,-9.44747 -3.29826,-13.86771 z"
         id="path429"
         sodipodi:nodetypes="ccccccccccccccccccccccccccc" /><path
         style="fill:#4ba17b;fill-opacity:1;stroke:none;stroke-width:0.264583"
         d="m -74.438669,146.06608 10.81305,15.90155 c 2.72286,-0.93353 4.2114,-1.59833 7.52673,-1.59016 4.63024,-0.14247 7.93317,0.0883 11.2371,1.27213 l -0.62321,4.30728 c -2.39895,8.19254 -2.13046,6.11049 -3.19317,9.15603 l -1.27212,3.28632 -3.60435,7.10269 -4.34642,5.93658 -7.42073,7.10269 -10.70704,8.16279 -19.71792,6.73166 -19.611911,0.58305 -17.27968,-4.87647 -13.03927,-7.52673 -9.32891,-9.2229 -10.60103,-19.5059 -1.59015,-7.10269 c 9.54093,-0.94962 19.08186,-0.46344 28.62278,1.69616 2.64511,3.45856 5.33235,6.66438 7.84477,10.91907 5.05089,3.18355 9.90755,6.64458 15.90155,8.48082 7.41713,1.16713 14.883211,1.35548 22.580191,-3.0743 l 4.66446,-2.75627 5.93657,-6.36061 4.66446,-7.73876 1.16611,-4.87647 z"
         id="path431"
         sodipodi:nodetypes="ccccccccccccccccccccccccccc" /><path
         style="fill:#489976;fill-opacity:1;stroke:none;stroke-width:0.264583"
         d="m -74.544679,146.06608 c 4.32346,4.7265 8.59393,10.63097 11.13108,15.79554 2.5174,5.65828 6.05118,7.12359 11.66114,5.51253 l 6.24762,-1.84553 -4.44545,12.65859 -3.55134,6.62565 -4.18741,6.83766 -7.20871,6.46663 -11.44911,8.58683 -19.92994,6.89067 -18.763831,0.31803 -17.80973,-5.08849 -13.88735,-8.79886 -7.84476,-7.52673 -11.34311,-20.24797 c 13.20711,4.85879 24.17702,5.24317 34.8774,5.08849 4.4808,3.78673 9.75993,6.92029 15.79553,9.43492 8.27237,1.35883 16.177461,1.06492 23.322271,-2.65026 l 4.55845,-2.96828 5.61854,-7.1027 4.87648,-7.42072 1.0601,-4.77046 z"
         id="path433"
         sodipodi:nodetypes="ccccccccccccccccccccccc" /><path
         style="fill:#42966c;fill-opacity:1;stroke:none;stroke-width:0.264583"
         d="m -64.897749,198.6472 c -7.19216,-3.04422 -16.84081,-2.15807 -26.82061,-0.74207 -10.868151,0.10394 -19.487051,-4.49752 -31.697081,-2.96829 -11.32493,-3.76149 -21.0658,-1.71481 -31.59108,-2.54425 l 9.85896,9.43492 13.03927,7.2087 17.38569,4.77046 18.657821,-0.53005 20.83102,-7.2087 z"
         id="path435"
         sodipodi:nodetypes="cccccccccc" /><path
         style="fill:#3e936a;fill-opacity:1;stroke:none;stroke-width:0.264583"
         d="m -73.484579,204.47776 c -8.31274,2.6044 -16.46763,5.56399 -25.86652,5.72456 -6.961371,-0.30393 -14.317771,-1.0819 -22.686211,-3.0743 -7.66808,-1.70834 -15.33616,-4.25142 -23.00424,-6.46663 2.86738,2.85084 7.64055,5.59551 12.61523,8.58684 5.49204,2.07286 11.22258,3.66872 17.27968,4.61144 7.42831,0.84187 13.41677,0.46759 19.505901,-0.31802 4.93797,-1.26822 10.01454,-2.32855 14.4174,-4.39943 3.02974,-1.37476 5.40213,-3.01246 7.73876,-4.66446 z"
         id="path437"
         sodipodi:nodetypes="ccccccccc" /><path
         style="fill:#42966c;fill-opacity:1;stroke:none;stroke-width:0.264583"
         d="m -65.374789,159.21136 c -1.48492,7.00059 -6.27054,4.26408 -10.44202,3.33932 l -1.21912,4.34643 -4.87647,7.42072 -5.0885,6.04259 -4.34642,3.28632 c -8.42648,3.73562 -16.353761,3.72732 -24.223361,3.28632 3.60344,0.6722 7.25606,1.78303 11.04498,2.28928 14.529971,1.94139 30.337981,2.25664 46.253601,2.95823 l 4.39943,-7.31471 3.86937,-6.83767 c -0.50699,-0.42249 1.97626,-3.00983 1.51166,-3.41618 -1.67517,-1.4651 -2.633,0.62925 -4.13697,-0.38978 -6.68725,-4.53101 -10.00948,-10.57898 -12.74618,-15.01087 z"
         id="path439"
         sodipodi:nodetypes="cccccccscccssc" /><path
         style="fill:#3e936a;fill-opacity:1;stroke:none;stroke-width:0.264583"
         d="m -65.268779,159.74141 c -0.0746,2.42354 0.76926,5.48531 -2.0672,5.98958 -3.22774,0.67431 -6.46665,1.66136 -9.64694,1.0071 l -4.55844,7.73876 -5.83057,6.46662 -4.29342,3.33933 c -7.75642,2.55692 -15.512841,3.03552 -23.269261,2.49124 l 25.177451,3.81638 31.06102,1.16611 4.55844,-6.83767 4.18741,-6.51963 -1.53715,-1.74917 -2.1202,-2.54424 z"
         id="path441"
         sodipodi:nodetypes="cccccccccccccc" /><path
         style="fill:#3a8965;fill-opacity:1;stroke:none;stroke-width:0.264583"
         d="m -64.632719,162.97473 c -0.34581,3.62344 -0.24143,7.56004 -3.71036,9.01087 -8.23364,0.23702 -12.94853,2.75309 -14.4174,4.39943 l -4.39943,4.92948 -4.92948,2.91528 c -7.3158,3.07197 -15.144221,3.37578 -23.163261,2.65026 l 26.184551,3.81637 30.68999,1.59016 4.87647,-7.26171 3.39233,-6.78466 -9.38191,-9.38191 c -1.16601,-0.69557 -1.93945,-1.89878 -2.99388,-2.13747 -2.01692,-0.45657 -1.47912,-2.47685 -2.14762,-3.7461 z"
         id="path443"
         sodipodi:nodetypes="cccccccccccsc" /><path
         style="fill:#34815c;fill-opacity:1;stroke:none;stroke-width:0.264583"
         d="m -87.265919,181.31451 c 4.76425,0.50933 9.08652,-0.14155 12.72124,-2.59725 3.09923,-0.92921 6.33687,-0.93575 9.85896,0.95409 3.45667,1.08373 6.74871,0.0273 10.07098,-0.63606 1.47359,-0.76983 2.94691,-1.54255 4.55844,-0.79508 l -3.81637,6.89067 -4.61145,6.89067 -31.22004,-1.27212 c -8.33734,-0.41709 -16.622391,-1.09557 -24.541391,-3.60435 8.3551,1.35186 15.614591,-0.1847 22.421181,-2.91529 z"
         id="path445"
         sodipodi:nodetypes="ccccccccccc" /><path
         style="fill:#2b7853;fill-opacity:1;stroke:none;stroke-width:0.264583"
         d="m -91.877369,184.22979 c 4.70819,-0.0142 8.00322,1.69881 15.00046,-1.1131 2.16298,-0.78849 4.23263,-0.5505 6.25461,0.21202 2.47396,0.76032 4.88969,1.43329 7.63274,2.59725 3.22213,-0.32363 6.54656,-0.80812 9.48792,-1.27213 -0.98279,2.75827 -3.07548,5.26615 -4.71746,7.26171 -10.60103,0.118 -21.20206,-0.61706 -31.80309,-1.16611 -9.985741,-0.17034 -17.465201,-2.10982 -25.124451,-3.92238 7.47915,0.49757 15.190191,1.6026 23.269271,-2.59726 z"
         id="path447"
         sodipodi:nodetypes="ccccccccc" /></g></g></svg>
